<?xml version="1.0" encoding="utf-8"?>
<!-- Generator: Adobe Illustrator 19.2.1, SVG Export Plug-In . SVG Version: 6.00 Build 0)  -->
<svg version="1.1" id="Isolation_Mode" xmlns="http://www.w3.org/2000/svg" xmlns:xlink="http://www.w3.org/1999/xlink" x="0px"
	 y="0px" viewBox="0 0 85.6 40.4" style="enable-background:new 0 0 85.6 40.4;" xml:space="preserve">
<style type="text/css">
	.st0{fill:#EAC2A8;}
	.st1{fill:#fabb05;}
</style>
<g>
	<path class="st0" d="M33.8,16.7c-7.3,2.4-11.4,2.1-21.2,4.3c-2,0.4-1.9,3.5-0.4,8c1.5,4.5,7.4,2.9,7.7,3.8c0.3,0.9,0.8,0.8-0.3,1.4
		c-2.9,1.3-3.5,1.8-4.3,3.2c-1.1,2.1,0.8,3.9,2.2,2.3c1.4-1.5,2.9-2.1,6.9-4.3c6.6-3.5,3.1-6.6,11.6-9.4
		C37.4,25.5,33.8,16.7,33.8,16.7"/>
	<path class="st0" d="M20.5,29.1c0,0,3.9,3.9,1.9,4.1c-2.2,0.3-7.8,2.3-8.8,2.7c-2.5,1-4.1,1.6-6.4,3.7c-2.1,1.9-4.2,0-3-1.4
		c2.5-2.9,4.8-4.2,7.9-5.6C14.6,31.5,20.5,29.1,20.5,29.1"/>
	<path class="st0" d="M17.8,26.4c0,0,2.2,4.5,0.1,4.6c-2.2,0.1-6.3,1.2-7.3,1.5c-2.5,0.9-4.1,1.3-6.5,3.4C2,37.7,0,35.7,1.2,34.4
		c2.6-2.7,5-3.9,8-5.1C11.8,28.4,17.8,26.4,17.8,26.4"/>
	<path class="st0" d="M17.5,23.1c0,0,1.8,4.3-0.1,4.3c-2.1,0-7,0.8-7.9,1.1c-2.5,0.7-3.8,1.4-6.6,2.7c-2.4,1.1-3.8-1.2-2.3-2.1
		c3.1-1.9,4.8-2.8,7.8-3.7C10.8,24.6,17.5,23.1,17.5,23.1"/>
	<path class="st0" d="M18.5,20.3c0,0,0.5,5.5-1,4.9c-2.4-1-5-0.9-5.8-0.9c-2.1,0-4.5,0.6-7,1.2c-2.2,0.5-2.9-1.6-1.6-2.1
		c2.9-1.1,4.5-1.6,7.1-2C12.4,21,18.5,20.3,18.5,20.3"/>
	<polygon class="st1" points="85.6,15 80.6,0 31.7,15.4 35.9,28 	"/>
</g>
</svg>
