<?xml version="1.0" encoding="utf-8"?>
<!-- Generator: Adobe Illustrator 19.2.1, SVG Export Plug-In . SVG Version: 6.00 Build 0)  -->
<svg version="1.1" id="Isolation_Mode" xmlns="http://www.w3.org/2000/svg" xmlns:xlink="http://www.w3.org/1999/xlink" x="0px"
	 y="0px" viewBox="0 0 76.3 20.4" style="enable-background:new 0 0 76.3 20.4;" xml:space="preserve">
<style type="text/css">
	.st0{fill:#EAC2A8;}
	.st1{fill:#fabb05;}
</style>
<g>
	<path class="st0" d="M37.3,16.7c-7.7,0.1-11.4,1.7-21.5,2.9c-2,0.2-3-2.7-3-7.5c0-4.7,6.1-5.2,6.1-6.1c0-0.9,0.5-1.1-0.8-1.2
		c-3.2-0.3-3.9-0.6-5.1-1.7c-1.8-1.7-0.5-4,1.4-2.9c1.8,1,3.5,1.1,8,1.8c7.4,1.2,5.1,5.2,14,5.1C37.8,7.1,37.3,16.7,37.3,16.7"/>
	<path class="st0" d="M20.7,9.3c0,0,2.5-4.9,0.5-4.5c-2.2,0.5-8.2,0.4-9.2,0.4C9.2,5,7.6,5,4.6,3.7C2,2.6,0.7,5.1,2.2,6
		c3.3,1.9,6,2.4,9.3,2.7C14.2,8.9,20.7,9.3,20.7,9.3"/>
	<path class="st0" d="M18.9,12.8c0,0,0.6-5-1.4-4.4c-2.1,0.6-6.3,0.9-7.4,0.9c-2.7,0-4.3,0.1-7.2-1.1c-2.6-1-3.8,1.6-2.3,2.3
		c3.4,1.7,6,2.1,9.3,2.2C12.6,12.8,18.9,12.8,18.9,12.8"/>
	<path class="st0" d="M19.8,15.9c0,0,0.4-4.6-1.5-4c-2,0.7-6.8,1.5-7.8,1.5c-2.6,0.1-4.1-0.1-7.1-0.4c-2.6-0.3-3.2,2.4-1.5,2.7
		c3.5,0.8,5.4,1.1,8.6,1C13,16.7,19.8,15.9,19.8,15.9"/>
	<path class="st0" d="M21.6,18.3c0,0-1.3-5.4-2.5-4.3c-2,1.7-4.4,2.4-5.2,2.7c-2,0.7-4.5,0.9-7,1.1c-2.2,0.2-2.2,2.5-0.8,2.5
		c3.1,0.1,4.7,0.1,7.4-0.4C15.6,19.6,21.6,18.3,21.6,18.3"/>
	<polygon class="st1" points="76.1,2.9 76.3,18.7 35.7,18.6 35.5,5.3 	"/>
</g>
</svg>
