<svg id="Isolation_Mode" data-name="Isolation Mode" xmlns="http://www.w3.org/2000/svg" viewBox="0 0 783.28 431"><title>logoWhite</title><path d="M204.73,185.14a50,50,0,0,0-14.94-10.78q-8.08-3.72-19.74-3.72A46.65,46.65,0,0,0,152.47,174a43.51,43.51,0,0,0-24.34,23.9,51.64,51.64,0,0,0,0,38,43,43,0,0,0,9.94,14.5,45.52,45.52,0,0,0,14.64,9.4,47.55,47.55,0,0,0,17.83,3.33,49.51,49.51,0,0,0,17.58-2.84A40.45,40.45,0,0,0,201,252.54a33.31,33.31,0,0,0,6.47-8.13A46.39,46.39,0,0,0,212,233.54H169.66v-24h69a50.84,50.84,0,0,1,1,5.88,55.29,55.29,0,0,1,.44,6.86,76.5,76.5,0,0,1-4.21,26,59.72,59.72,0,0,1-12.73,20.87,65.24,65.24,0,0,1-22.63,15.53q-13.22,5.54-30.17,5.54a76.22,76.22,0,0,1-28.85-5.49,73.14,73.14,0,0,1-23.66-15.28A73.6,73.6,0,0,1,141.5,149.09a76.22,76.22,0,0,1,28.85-5.49q17.44,0,30.76,6A71.15,71.15,0,0,1,224.22,166Z" style="fill:#fff"/><path d="M382,249.49q0,18.46-13.52,29.65-13.72,11-33.31,11a49.24,49.24,0,0,1-30.76-10.19q-13.3-10.19-18.41-27.82l17.24-7.06a44.43,44.43,0,0,0,4.9,11.36,36.76,36.76,0,0,0,7.35,8.72,33.28,33.28,0,0,0,9.31,5.68,28.5,28.5,0,0,0,10.78,2.05q12.34,0,20.18-6.37t7.84-16.95a20.26,20.26,0,0,0-6.47-15.09q-6.07-6.07-22.73-11.75-16.85-6.07-21-8.23-22.34-11.36-22.33-33.5,0-15.47,12.34-26.45,12.54-11,30.76-11,16.06,0,27.82,8.23,11.76,8,15.67,20.18l-16.8,7a24.93,24.93,0,0,0-9.31-13,27.66,27.66,0,0,0-17-5.19q-10.58,0-17.83,5.85a17,17,0,0,0-7.25,14.24,16.47,16.47,0,0,0,5.68,12.49q6.27,5.26,27.23,12.48,21.35,7.27,30.46,17.77T382,249.49Z" style="fill:#fff"/><path d="M481.9,287H464.66V273.68h-0.78a32.08,32.08,0,0,1-12.64,11.75,36.24,36.24,0,0,1-17.73,4.7q-17.63,0-27.13-10.09t-9.5-28.7V191h18v59.16q0.59,23.51,23.71,23.51,10.77,0,18-8.72a31.59,31.59,0,0,0,7.25-20.87V191h18v96h0.06Z" style="fill:#fff"/><path d="M523,157.89a12.71,12.71,0,1,1-3.72-9A12.27,12.27,0,0,1,523,157.89ZM519.29,191v96h-18V191h18Z" style="fill:#fff"/><path d="M574.6,288.57q-11.76,0-19.49-7.25t-7.93-20.18V207.46H530.32V191h16.85V161.61h18V191H588.7v16.46H565.19v47.8q0,9.6,3.72,13a12.09,12.09,0,0,0,8.42,3.43,18.08,18.08,0,0,0,4.21-.49,21.63,21.63,0,0,0,3.82-1.27l5.7,16.07A48.48,48.48,0,0,1,574.6,288.57Z" style="fill:#fff"/><path d="M642,290.14q-21.16,0-34.87-14.5T593.38,239q0-21.94,13.32-36.54t34.09-14.6q21.35,0,34,13.81t12.64,38.69l-0.2,2H611.8q0.39,14.11,9.4,22.73a30.08,30.08,0,0,0,21.55,8.62q17.24,0,27-17.24l16.06,7.84a47.84,47.84,0,0,1-17.93,19A49.59,49.59,0,0,1,642,290.14Zm-28.8-62.69h55a23.91,23.91,0,0,0-8.13-16.55q-7.35-6.56-19.69-6.56a26.12,26.12,0,0,0-17.53,6.27,30,30,0,0,0-9.73,16.83h0Z" style="fill:#fff"/><rect x="687.27" y="47" width="96" height="384" style="fill:none"/><rect y="47" width="96" height="384" style="fill:none"/><rect x="0.01" width="783.27" height="144" style="fill:none"/><rect x="0.01" width="783.27" height="144" style="fill:none"/><rect x="0.01" y="287" width="783.27" height="144" style="fill:none"/></svg>